<svg width="30" height="30" viewBox="0 0 30 30" fill="none" xmlns="http://www.w3.org/2000/svg">
<g clip-path="url(#clip0)">
<path d="M15.005 7.29749C10.7512 7.29749 7.3075 10.745 7.3075 14.995C7.3075 19.2487 10.755 22.6925 15.005 22.6925C19.2587 22.6925 22.7025 19.245 22.7025 14.995C22.7025 10.7412 19.255 7.29749 15.005 7.29749ZM15.005 19.9912C12.2437 19.9912 10.0087 17.755 10.0087 14.995C10.0087 12.235 12.245 9.99874 15.005 9.99874C17.765 9.99874 20.0012 12.235 20.0012 14.995C20.0025 17.755 17.7662 19.9912 15.005 19.9912Z" fill="#4C4D5D"/>
<path d="M21.1843 0.0969189C18.4243 -0.0318311 11.5881 -0.0255811 8.82556 0.0969189C6.39806 0.210669 4.25681 0.796919 2.53056 2.52317C-0.354443 5.40817 0.0143075 9.29567 0.0143075 14.9969C0.0143075 20.8319 -0.310692 24.6294 2.53056 27.4707C5.42681 30.3657 9.37056 29.9869 15.0043 29.9869C20.7843 29.9869 22.7793 29.9907 24.8231 29.1994C27.6018 28.1207 29.6993 25.6369 29.9043 21.1757C30.0343 18.4144 30.0268 11.5794 29.9043 8.81692C29.6568 3.55067 26.8306 0.356919 21.1843 0.0969189ZM25.5531 25.5619C23.6618 27.4532 21.0381 27.2844 14.9681 27.2844C8.71806 27.2844 6.21181 27.3769 4.38306 25.5432C2.27681 23.4469 2.65806 20.0807 2.65806 14.9769C2.65806 8.07067 1.94931 3.09692 8.88056 2.74192C10.4731 2.68567 10.9418 2.66692 14.9506 2.66692L15.0068 2.70442C21.6681 2.70442 26.8943 2.00692 27.2081 8.93692C27.2793 10.5182 27.2956 10.9932 27.2956 14.9957C27.2943 21.1732 27.4118 23.6944 25.5531 25.5619Z" fill="#4C4D5D"/>
<path d="M23.0075 8.79257C24.0009 8.79257 24.8062 7.98724 24.8062 6.99382C24.8062 6.0004 24.0009 5.19507 23.0075 5.19507C22.0141 5.19507 21.2087 6.0004 21.2087 6.99382C21.2087 7.98724 22.0141 8.79257 23.0075 8.79257Z" fill="#4C4D5D"/>
</g>
<defs>
<clipPath id="clip0">
<rect width="30" height="30" fill="white"/>
</clipPath>
</defs>
</svg>
